# xmcd CD database file
#
# Track frame offsets:
#	150
#	17970
#	43910
#	78235
#	102693
#	121955
#	151231
#	159900
#	190611
#	219854
#	237179
#
# Disc length: 3479 seconds
#
# Revision: 1
# Processed by: cddbd v1.5.1PL0 Copyright (c) Steve Scherf et al.
# Submitted via: CDex 1.51
#
DISCID=840d950b
DTITLE=Ewan Svensson Trio featuring Antoine Herve - Just Live To Tell The Tale
DYEAR=2005
DGENRE=Jazz
TTITLE0=Back Again
TTITLE1=Just Live To Tell The Tale
TTITLE2=Glassvoices
TTITLE3=Eagle Eyes
TTITLE4=Parenthese
TTITLE5=Waltz For Vanja
TTITLE6=Solar
TTITLE7=One For Three
TTITLE8=La Lubie De Bilou
TTITLE9=Beatvis
TTITLE10=Les Amants D'un Jour
EXTD=YEAR: 2005
EXTT0=
EXTT1=
EXTT2=
EXTT3=
EXTT4=
EXTT5=
EXTT6=
EXTT7=
EXTT8=
EXTT9=
EXTT10=
PLAYORDER=
